SplineFontDB: 3.0
FontName: Topmarks-Bold
FullName: Topmarks Bold
FamilyName: Topmarks
Weight: Bold
Copyright: Copyright (c) 2012-13 by vernon adams. All rights reserved.
Version: 
ItalicAngle: 0
UnderlinePosition: 0
UnderlineWidth: 0
Ascent: 1638
Descent: 410
UFOAscent: 1470
UFODescent: -410
LayerCount: 2
Layer: 0 0 "Back"  1
Layer: 1 0 "Fore"  0
FSType: 0
OS2Version: 0
OS2_WeightWidthSlopeOnly: 0
OS2_UseTypoMetrics: 1
CreationTime: 1363899779
ModificationTime: 1363899929
PfmFamily: 17
TTFWeight: 700
TTFWidth: 5
LineGap: 0
VLineGap: 0
OS2TypoAscent: 1638
OS2TypoAOffset: 0
OS2TypoDescent: -410
OS2TypoDOffset: 0
OS2TypoLinegap: 0
OS2WinAscent: 1638
OS2WinAOffset: 0
OS2WinDescent: 410
OS2WinDOffset: 0
HheadAscent: 1638
HheadAOffset: 0
HheadDescent: -410
HheadDOffset: 0
OS2Vendor: 'newt'
Lookup: 258 0 0 "'kern' Horizontal Kerning in Latin lookup 0"  {"'kern' Horizontal Kerning in Latin lookup 0 subtable"  } ['kern' ('latn' <'dflt' > ) ]
Lookup: 258 0 0 "kernHorizontalKerninginLatinloo"  {"kernHorizontalKerninginLatinloo subtable"  } ['kern' ('latn' <'dflt' > ) ]
Lookup: 258 0 0 "pos_pair_kernlatn_0"  {"pos_pair_kernlatn_0 subtable"  } ['kern' ('latn' <'dflt' > ) ]
MarkAttachClasses: 1
DEI: 91125
LangName: 1033 "" "" "" "" "" "" "" "" "vernon adams" "vernon adams" "Copyright (c) 2011 by vernon adams. All rights reserved." 
Encoding: ISO8859-1
Compacted: 1
UnicodeInterp: none
NameList: AGL For New Fonts
DisplaySize: -48
AntiAlias: 1
FitToEm: 1
WinInfo: 0 19 10
BeginPrivate: 0
EndPrivate
BeginChars: 399 96

StartChar: A
Encoding: 65 65 0
Width: 1398
VWidth: 0
GlyphClass: 2
Flags: W
HStem: 0 21G<46 326.746 1061.49 1353> 335 198<500 894> 1428 20G<576.569 831.307>
LayerCount: 2
UndoRedoHistory
Layer: 1
Undoes
EndUndoes
Redoes
EndRedoes
EndUndoRedoHistory
Fore
SplineSet
500 533 m 1
 894 533 l 1
 823 750 l 1
 698.235 1121 l 1
 573 750 l 1
 500 533 l 1
46 0 m 1
 584 1448 l 1
 824 1448 l 1
 1353 0 l 1
 1068 0 l 1
 959 335 l 1
 433 335 l 1
 320 0 l 1
 46 0 l 1
EndSplineSet
EndChar

StartChar: B
Encoding: 66 66 1
Width: 1377
VWidth: 0
GlyphClass: 2
Flags: W
HStem: 0 201<432 915.132> 657 184<432 868.566> 1248 200<432 879.219>
VStem: 182 250<201 657 841 1248> 957 242<919.585 1177.32> 1014 246<285.26 570.402>
LayerCount: 2
UndoRedoHistory
Layer: 1
Undoes
EndUndoes
Redoes
EndRedoes
EndUndoRedoHistory
Fore
SplineSet
432 841 m 1xf8
 652 841 l 2
 867 841 957 907 957 1062 c 0
 957 1195 863 1248 639 1248 c 2
 432 1248 l 1
 432 841 l 1xf8
432 201 m 1
 696 201 l 2
 919 201 1014 268 1014 433 c 0xf4
 1014 590 914 657 681 657 c 2
 432 657 l 1
 432 201 l 1
182 0 m 1
 182 1448 l 1
 629 1448 l 2
 1011 1448 1199 1345 1199 1100 c 0xf8
 1199 920 1128 823 962 775 c 1
 1171 740 1260 633 1260 420 c 0
 1260 127 1074 0 693 0 c 2
 182 0 l 1
EndSplineSet
EndChar

StartChar: C
Encoding: 67 67 2
Width: 1397
VWidth: 0
GlyphClass: 2
Flags: W
HStem: -22 202<660.799 1080.87> 1252 218<649.881 1057.22>
VStem: 136 256<467.222 963.456>
LayerCount: 2
UndoRedoHistory
Layer: 1
Undoes
EndUndoes
Redoes
EndRedoes
EndUndoRedoHistory
Fore
SplineSet
843.388 -22 m 0
 425.403 -22 136 274 136 720 c 0
 136 1172 437 1470 856 1470 c 0
 1005 1470 1171.55 1409 1294.55 1314 c 1
 1207.55 1122 l 1
 1132.55 1183 986.027 1252 853.319 1252 c 0
 563.527 1252 392 1032 392 719 c 0
 392 405 562 180 867 180 c 0
 988 180 1134 232 1233 311 c 1
 1310.55 125 l 1
 1201.55 36 1001.37 -22 843.388 -22 c 0
EndSplineSet
EndChar

StartChar: D
Encoding: 68 68 3
Width: 1562
VWidth: 0
GlyphClass: 2
Flags: W
HStem: 0 200<432 887.258> 1248 200<432 869.893>
VStem: 182 250<200 1248> 1170 256<459.455 988.113>
LayerCount: 2
UndoRedoHistory
Layer: 1
Undoes
EndUndoes
Redoes
EndRedoes
EndUndoRedoHistory
Fore
SplineSet
182 0 m 1
 182 1448 l 1
 521 1448 l 2
 1115 1448 1426 1236 1426 738 c 0
 1426 221 1144 0 578 0 c 2
 182 0 l 1
432 200 m 1
 594 200 l 2
 1012 200 1170 368 1170 735 c 0
 1170 1088 1000 1248 554 1248 c 2
 432 1248 l 1
 432 200 l 1
EndSplineSet
EndChar

StartChar: E
Encoding: 69 69 4
Width: 1204
VWidth: 0
GlyphClass: 2
Flags: W
HStem: 0 200<431.746 1085.78> 642 193<431.746 997.78> 1248 200<431.746 1035.78>
VStem: 182 249.746<200 642 835 1248>
LayerCount: 2
UndoRedoHistory
Layer: 1
Undoes
EndUndoes
Redoes
EndRedoes
EndUndoRedoHistory
Fore
SplineSet
182 0 m 1
 182 1448 l 1
 1035.78 1448 l 1
 1035.78 1248 l 1
 431.746 1248 l 1
 431.746 835 l 1
 997.78 835 l 1
 997.78 642 l 1
 431.746 642 l 1
 431.746 200 l 1
 1085.78 200 l 1
 1085.78 0 l 1
 182 0 l 1
EndSplineSet
EndChar

StartChar: F
Encoding: 70 70 5
Width: 1147
VWidth: 0
GlyphClass: 2
Flags: W
HStem: 0 21G<182 431.746> 664 193<431.746 990.48> 1248 200<431.746 1023.48>
VStem: 182 249.746<0 664 857 1248>
LayerCount: 2
UndoRedoHistory
Layer: 1
Undoes
EndUndoes
Redoes
EndRedoes
EndUndoRedoHistory
Fore
SplineSet
182 0 m 1
 182 1448 l 1
 1023.48 1448 l 1
 1023.48 1248 l 1
 431.746 1248 l 1
 431.746 857 l 1
 990.48 857 l 1
 990.48 664 l 1
 431.746 664 l 1
 431.746 0 l 1
 182 0 l 1
EndSplineSet
EndChar

StartChar: G
Encoding: 71 71 6
Width: 1520
VWidth: 0
GlyphClass: 2
Flags: W
HStem: -22 202<664.08 1107.65> 595 178<828.041 1116> 1252 218<676.852 1107.54>
VStem: 136 256<463.473 952.695> 1116 244.17<209.621 595>
LayerCount: 2
UndoRedoHistory
Layer: 1
Undoes
EndUndoes
Redoes
EndRedoes
EndUndoRedoHistory
Fore
SplineSet
856.027 -22 m 0
 428.111 -22 136 256 136 687 c 0
 136 1159 441.653 1470 877.693 1470 c 0
 1027.55 1470 1203.17 1416 1336.17 1334 c 1
 1254.17 1145 l 1
 1138.17 1206 994.152 1252 886.721 1252 c 0
 583.389 1252 392 1033 392 701 c 0
 392 391 582 180 868 180 c 0
 963 180 1053 198 1116 227 c 1
 1116 595 l 1
 828.041 595 l 1
 828.041 773 l 1
 1360.17 773 l 1
 1360.17 78 l 1
 1228.17 16 1024.85 -22 856.027 -22 c 0
EndSplineSet
EndChar

StartChar: H
Encoding: 72 72 7
Width: 1532
VWidth: 0
GlyphClass: 2
Flags: W
HStem: 0 21G<182 432 1100.96 1350.96> 635 215<432 1100.96> 1428 20G<182 432 1100.96 1350.96>
VStem: 182 250<0 635 850 1448> 1100.96 250<0 635 850 1448>
LayerCount: 2
UndoRedoHistory
Layer: 1
Undoes
EndUndoes
Redoes
EndRedoes
EndUndoRedoHistory
Fore
SplineSet
182 0 m 1
 182 1448 l 1
 432 1448 l 1
 432 850 l 1
 1100.96 850 l 1
 1100.96 1448 l 1
 1350.96 1448 l 1
 1350.96 0 l 1
 1100.96 0 l 1
 1100.96 635 l 1
 432 635 l 1
 432 0 l 1
 182 0 l 1
EndSplineSet
EndChar

StartChar: I
Encoding: 73 73 8
Width: 640
VWidth: 0
GlyphClass: 2
Flags: W
HStem: 0 21G<195 445> 1428 20G<195 445>
VStem: 195 250<0 1448>
LayerCount: 2
UndoRedoHistory
Layer: 1
Undoes
EndUndoes
Redoes
EndRedoes
EndUndoRedoHistory
Fore
SplineSet
195 0 m 1
 195 1448 l 1
 445 1448 l 1
 445 0 l 1
 195 0 l 1
EndSplineSet
EndChar

StartChar: J
Encoding: 74 74 9
Width: 1142
VWidth: 0
GlyphClass: 2
Flags: W
HStem: -252 208<224.898 496.538> 1248 200<213 577 820 1083>
VStem: 577 243<43.9939 1248>
LayerCount: 2
UndoRedoHistory
Layer: 1
Undoes
EndUndoes
Redoes
EndRedoes
EndUndoRedoHistory
Fore
SplineSet
-37 -47 m 1
 114 94 l 1
 195 1 290 -44 373 -44 c 0
 487 -44 577 40 577 200 c 2
 577 1248 l 1
 213 1248 l 1
 213 1448 l 1
 1083 1448 l 1
 1083 1248 l 1
 820 1248 l 1
 820 219 l 2
 820 -103 614 -252 391 -252 c 0
 236 -252 73 -181 -37 -47 c 1
EndSplineSet
EndChar

StartChar: K
Encoding: 75 75 10
Width: 1278
VWidth: 0
GlyphClass: 2
Flags: W
HStem: 0 21G<182 432 927.088 1273.07> 1428 20G<182 432 913.538 1239.07>
VStem: 182 250<0 681 822 1448>
LayerCount: 2
UndoRedoHistory
Layer: 1
Undoes
EndUndoes
Redoes
EndRedoes
EndUndoRedoHistory
Fore
SplineSet
182 0 m 1
 182 1448 l 1
 432 1448 l 1
 432 822 l 1
 929.43 1448 l 1
 1239.07 1448 l 1
 660.402 773 l 1
 1273.07 0 l 1
 942.068 0 l 1
 432 681 l 1
 432 0 l 1
 182 0 l 1
EndSplineSet
EndChar

StartChar: L
Encoding: 76 76 11
Width: 1072
VWidth: 0
GlyphClass: 2
Flags: W
HStem: 0 200<431.746 1037.93> 1428 20G<182 431.746>
VStem: 182 249.746<200 1448>
LayerCount: 2
UndoRedoHistory
Layer: 1
Undoes
EndUndoes
Redoes
EndRedoes
EndUndoRedoHistory
Fore
SplineSet
182 0 m 1
 182 1448 l 1
 431.746 1448 l 1
 431.746 200 l 1
 1037.93 200 l 1
 1037.93 0 l 1
 182 0 l 1
EndSplineSet
EndChar

StartChar: M
Encoding: 77 77 12
Width: 1872
VWidth: 0
GlyphClass: 2
Flags: W
HStem: 0 21G<184 434 1438.79 1688.79> 1428 20G<184 488.015 1386.47 1688.79>
VStem: 184 250<0 1094> 1438.79 250<0 1077>
LayerCount: 2
UndoRedoHistory
Layer: 1
Undoes
EndUndoes
Redoes
EndRedoes
EndUndoRedoHistory
Fore
SplineSet
184 0 m 1
 184 1448 l 1
 477.333 1448 l 1
 859.207 733 l 1
 936.846 569 l 1
 1012.68 735 l 1
 1397.26 1448 l 1
 1688.79 1448 l 1
 1688.79 0 l 1
 1438.79 0 l 1
 1438.79 1077 l 1
 1342.19 863 l 1
 991.01 229 l 1
 878.166 229 l 1
 529.694 875 l 1
 434 1094 l 1
 434 0 l 1
 184 0 l 1
EndSplineSet
EndChar

StartChar: N
Encoding: 78 78 13
Width: 1601
VWidth: 0
GlyphClass: 2
Flags: W
HStem: 0 21G<184 404 1138.03 1417> 1428 20G<184 458.685 1197 1417>
VStem: 184 220<0 1105> 1197 220<340 1448>
LayerCount: 2
UndoRedoHistory
Layer: 1
Undoes
EndUndoes
Redoes
EndRedoes
EndUndoRedoHistory
Fore
SplineSet
184 0 m 1
 184 1448 l 1
 445 1448 l 1
 1080 520 l 1
 1197 340 l 1
 1197 1448 l 1
 1417 1448 l 1
 1417 0 l 1
 1151.57 0 l 1
 513 943 l 1
 404 1105 l 1
 404 0 l 1
 184 0 l 1
EndSplineSet
EndChar

StartChar: O
Encoding: 79 79 14
Width: 1632
VWidth: 0
GlyphClass: 2
Flags: W
HStem: -22 202<634.745 992.789> 1252 218<634.722 992.803>
VStem: 136 256<468.895 979.741> 1240 256<471.819 978.205>
LayerCount: 2
UndoRedoHistory
Layer: 1
Undoes
EndUndoes
Redoes
EndRedoes
EndUndoRedoHistory
Fore
SplineSet
813.083 -22 m 0
 416.764 -22 136 276 136 726 c 0
 136 1172 416.764 1470 813.083 1470 c 0
 1213.35 1470 1496 1172 1496 726 c 0
 1496 276 1213.35 -22 813.083 -22 c 0
813 180 m 0
 1061 180 1241 400 1240 724 c 1
 1240 1054 1061.35 1252 813.083 1252 c 0
 564.819 1252 392 1054 392 724 c 0
 392 400 565 180 813 180 c 0
EndSplineSet
EndChar

StartChar: P
Encoding: 80 80 15
Width: 1270
VWidth: 0
GlyphClass: 2
Flags: W
HStem: 0 21G<184 434> 552 203<434 854.434> 1248 200<434 843.3>
VStem: 184 250<0 552 755 1248> 949 256<846.073 1158.39>
LayerCount: 2
UndoRedoHistory
Layer: 1
Undoes
EndUndoes
Redoes
EndRedoes
EndUndoRedoHistory
Fore
SplineSet
434 755 m 1
 644 755 l 2
 852 755 949 822 949 1008 c 0
 949 1185 845.412 1248 626.037 1248 c 2
 434 1248 l 1
 434 755 l 1
184 0 m 1
 184 1448 l 1
 604.371 1448 l 2
 1017.01 1448 1205 1323 1205 1010 c 0
 1205 682 1023 552 627 552 c 2
 434 552 l 1
 434 0 l 1
 184 0 l 1
EndSplineSet
EndChar

StartChar: Q
Encoding: 81 81 16
Width: 1624
VWidth: 0
GlyphClass: 2
Flags: W
HStem: -22 202<634.745 992.789> 1252 218<634.722 992.803>
VStem: 136 256<468.895 979.741> 1240 256<471.819 978.205>
LayerCount: 2
UndoRedoHistory
Layer: 1
Undoes
EndUndoes
Redoes
EndRedoes
EndUndoRedoHistory
Fore
SplineSet
1232.87 -425 m 1
 1129.01 -309 1020 -149 951 13 c 1
 1162 86 l 1
 1219 -43 1317.14 -177 1414.14 -268 c 1
 1232.87 -425 l 1
EndSplineSet
Refer: 14 79 N 1 0 0 1 0 0 2
EndChar

StartChar: R
Encoding: 82 82 17
Width: 1331
VWidth: 0
GlyphClass: 2
Flags: W
HStem: 0 21G<184 434 992.102 1267> 638 183<434 748.062> 1248 200<434 872.623>
VStem: 184 250<0 638 821 1248> 940 252<901.452 1192.79>
LayerCount: 2
UndoRedoHistory
Layer: 1
Undoes
EndUndoes
Redoes
EndRedoes
EndUndoRedoHistory
Fore
SplineSet
434 821 m 1
 650 821 l 2
 853 821 940 887 940 1054 c 0
 940 1214 855 1248 659 1248 c 2
 434 1248 l 1
 434 821 l 1
184 0 m 1
 184 1448 l 1
 642 1448 l 2
 1016 1448 1192 1335 1192 1069 c 0
 1192 899.453645399 1136.05406619 754.334388659 968.904555206 681.905234736 c 1
 1267 0 l 1
 1000 0 l 1
 748.0625 638 l 1
 434 638 l 1
 434 0 l 1
 184 0 l 1
EndSplineSet
EndChar

StartChar: S
Encoding: 83 83 18
Width: 1245
VWidth: 0
GlyphClass: 2
Flags: W
HStem: -22 202<414.64 810.803> 1252 218<468.917 878.249>
VStem: 147 263<965.103 1197.47> 893 236<258.962 507.746>
LayerCount: 2
UndoRedoHistory
Layer: 1
Undoes
EndUndoes
Redoes
EndRedoes
EndUndoRedoHistory
Fore
SplineSet
664 -22 m 0
 497 -22 294 33 155 121 c 1
 214 315 l 1
 390 217 535 180 655 180 c 0
 816 180 893 279 893 385 c 0
 893 486 869 552 545 657 c 1
 225 753 147 886 147 1059 c 0
 147 1276 284 1470 638 1470 c 0
 784 1470 945 1426 1077 1345 c 1
 1007 1151 l 1
 881 1218 762 1252 654 1252 c 0
 462 1252 410 1181 410 1084 c 0
 410 984 431 948 678 859 c 1
 1024 740 1135 642 1129 391 c 0
 1124 164 979 -22 664 -22 c 0
EndSplineSet
EndChar

StartChar: T
Encoding: 84 84 19
Width: 1187
VWidth: 0
GlyphClass: 2
Flags: W
HStem: 0 21G<469.515 718.434> 1248 200<60 469.515 718.434 1127.81>
VStem: 469.515 248.919<0 1248>
LayerCount: 2
UndoRedoHistory
Layer: 1
Undoes
EndUndoes
Redoes
EndRedoes
EndUndoRedoHistory
Fore
SplineSet
469.515 0 m 1
 469.515 1248 l 1
 60 1248 l 1
 60 1448 l 1
 1127.81 1448 l 1
 1127.81 1248 l 1
 718.434 1248 l 1
 718.434 0 l 1
 469.515 0 l 1
EndSplineSet
EndChar

StartChar: U
Encoding: 85 85 20
Width: 1513
VWidth: 0
GlyphClass: 2
Flags: W
HStem: -22 202<591.785 932.824> 1428 20G<172 422 1092.5 1342.42>
VStem: 172 250<354.928 1448> 1093 249.42<348.693 1448>
LayerCount: 2
UndoRedoHistory
Layer: 1
Undoes
EndUndoes
Redoes
EndRedoes
EndUndoRedoHistory
Fore
SplineSet
765.958 -22 m 0
 419 -22 172 208 172 547 c 2
 172 1448 l 1
 422 1448 l 1
 422 536 l 2
 422 322 559 180 765 180 c 0
 960 180 1093 319 1093 529 c 2
 1092.5 1448 l 1
 1342.42 1448 l 1
 1342.42 558 l 2
 1342.42 213 1105.42 -22 765.958 -22 c 0
EndSplineSet
EndChar

StartChar: V
Encoding: 86 86 21
Width: 1306
VWidth: 0
GlyphClass: 2
Flags: W
HStem: 0 21G<523.355 815.483> 1428 20G<3 282.016 1017.55 1303.84>
LayerCount: 2
UndoRedoHistory
Layer: 1
Undoes
EndUndoes
Redoes
EndRedoes
EndUndoRedoHistory
Fore
SplineSet
530.643 0 m 1
 3 1448 l 1
 275.158 1448 l 1
 555.643 630 l 1
 670.643 323 l 1
 777.643 629 l 1
 1023.56 1448 l 1
 1303.84 1448 l 1
 808.643 0 l 1
 530.643 0 l 1
EndSplineSet
EndChar

StartChar: W
Encoding: 87 87 22
Width: 2143
VWidth: 0
GlyphClass: 2
Flags: W
HStem: 0 21G<491.757 725.751 1420.06 1654.01> 1428 20G<46 306.971 990.885 1166.57 1843.95 2098.78>
LayerCount: 2
UndoRedoHistory
Layer: 1
Undoes
EndUndoes
Redoes
EndRedoes
EndUndoRedoHistory
Fore
SplineSet
498 0 m 1
 46 1448 l 1
 301 1448 l 1
 550 614 l 1
 617 385 l 1
 703 614 l 1
 997.958 1448 l 1
 1159.55 1448 l 1
 1453.78 610 l 1
 1534.78 386 l 1
 1606.78 614 l 1
 1849.78 1448 l 1
 2098.78 1448 l 1
 1647.78 0 l 1
 1426.78 0 l 1
 1073.79 1051 l 1
 719 0 l 1
 498 0 l 1
EndSplineSet
EndChar

StartChar: X
Encoding: 88 88 23
Width: 1310
VWidth: 0
GlyphClass: 2
Flags: W
HStem: 0 21G<-7 280.839 1016.49 1300.85> 1428 20G<42 333.465 1031.36 1317.85>
LayerCount: 2
UndoRedoHistory
Layer: 1
Undoes
EndUndoes
Redoes
EndRedoes
EndUndoRedoHistory
Fore
SplineSet
1029.85 0 m 1
 655.194 561 l 1
 267 0 l 1
 -7 0 l 1
 531.513 748 l 1
 42 1448 l 1
 320.264 1448 l 1
 678.666 905 l 1
 1044.85 1448 l 1
 1317.85 1448 l 1
 802.346 717 l 1
 1300.85 0 l 1
 1029.85 0 l 1
EndSplineSet
EndChar

StartChar: Y
Encoding: 89 89 24
Width: 1215
VWidth: 0
GlyphClass: 2
Flags: W
HStem: 0 21G<490.185 740.185> 1428 20G<-19 263.246 964.692 1234>
VStem: 490.185 250<0 580>
LayerCount: 2
UndoRedoHistory
Layer: 1
Undoes
EndUndoes
Redoes
EndRedoes
EndUndoRedoHistory
Fore
SplineSet
490.185 0 m 1
 490.185 580 l 1
 -19 1448 l 1
 252 1448 l 1
 613 806 l 1
 976 1448 l 1
 1234 1448 l 1
 740.185 582 l 1
 740.185 0 l 1
 490.185 0 l 1
EndSplineSet
EndChar

StartChar: Z
Encoding: 90 90 25
Width: 1231
VWidth: 0
GlyphClass: 2
Flags: W
HStem: 0 200<394.727 1123.81> 1248 200<131 839.796>
LayerCount: 2
UndoRedoHistory
Layer: 1
Undoes
EndUndoes
Redoes
EndRedoes
EndUndoRedoHistory
Fore
SplineSet
100 0 m 1
 100 198 l 1
 839.796 1248 l 1
 131 1248 l 1
 131 1448 l 1
 1131.81 1448 l 1
 1131.81 1268 l 1
 394.727 200 l 1
 1123.81 200 l 1
 1123.81 0 l 1
 100 0 l 1
EndSplineSet
EndChar

StartChar: a
Encoding: 97 97 26
Width: 1218
VWidth: 0
GlyphClass: 2
Flags: W
HStem: -22 196<422.121 667.412 1039.37 1140> 820 196<503.228 757.198>
VStem: 95 248<263.04 642.698> 761 242<269.108 816.943>
LayerCount: 2
UndoRedoHistory
Layer: 1
Undoes
EndUndoes
Redoes
EndRedoes
EndUndoRedoHistory
Fore
SplineSet
526 174 m 0
 668 174 761 276 761 419 c 2
 761 808 l 1
 761 808 703 826 628 820 c 0
 466 807 343 659 343 434 c 0
 343 282 419 174 526 174 c 0
509 -22 m 0
 272 -22 95 164 95 425 c 0
 95 787 334 1006 665 1016 c 0
 821 1021 959 963 1003 945 c 1
 1003 363 l 2
 1003 253 1011 179 1172 176 c 1
 1140 -16 l 1
 993 -16 857 -7 803 151 c 1
 751 46 631 -22 509 -22 c 0
EndSplineSet
EndChar

StartChar: ampersand
Encoding: 38 38 27
Width: 2784
VWidth: 0
GlyphClass: 2
Flags: W
HStem: -47 167<603.268 1012.65> 1557 157<668.237 950.956>
VStem: 203 211<291.477 630.647> 418.514 183.263<1205.98 1492.74> 1018.86 180.56<1238.96 1493.91> 1474.76 196<726.683 998>
LayerCount: 2
UndoRedoHistory
Layer: 1
Undoes
EndUndoes
Redoes
EndRedoes
EndUndoRedoHistory
Fore
SplineSet
764.277 1062 m 1
 854.555 1114 948.443 1179 996.291 1275 c 0
 1010.73 1304 1018.86 1334 1018.86 1367 c 0
 1018.86 1495 924.068 1557 810.319 1557 c 0
 693.861 1557 601.777 1496 601.777 1367 c 0
 601.777 1260 649.625 1191 697.472 1133 c 0
 717.333 1110 739.902 1087 764.277 1062 c 1
798.583 120 m 0
 1000.8 120 1119.97 215 1222.89 326 c 1
 1221.08 326 1211.15 334 1197.61 349 c 0
 1126.29 425 1047.75 518 974.624 599 c 2
 730.874 865 l 1
 615.319 799 497.958 726 440.181 597 c 0
 423.028 557 414 512 414 461 c 0
 414 288 523.236 191 644.208 146 c 0
 691.152 129 742.61 120 798.583 120 c 0
802.194 -47 m 0
 547.611 -47 348 57 250 243 c 0
 217 305 203 377 203 456 c 0
 203 599 265 696 341 773 c 1
 423.028 858 525.944 926 625.25 985 c 1
 552.125 1066 473.583 1144 435.667 1259 c 0
 423.931 1293 418.514 1332 418.514 1373 c 0
 418.514 1606 590.944 1714 802.194 1714 c 0
 971.013 1714 1101.01 1644 1165.11 1527 c 0
 1188.58 1484 1199.42 1436 1199.42 1379 c 0
 1199.42 1271 1151.57 1192 1100.11 1132 c 1
 1039.62 1059 957.471 998 874.416 949 c 1
 1314.07 452 l 1
 1384.48 564 1438.65 710 1463.03 872 c 0
 1471.15 924 1474.76 973 1474.76 1022 c 1
 1670.76 998 l 1
 1660.76 718 1563.76 485 1436.85 318 c 1
 1519.76 229 1596.76 160 1723.76 118 c 1
 1760.76 107 1804.76 96 1853.76 85 c 1
 1697.76 -30 l 1
 1523.76 -4 1432.33 102 1337.54 203 c 1
 1211.15 66 1048.65 -47 802.194 -47 c 0
EndSplineSet
EndChar

StartChar: asciicircum
Encoding: 94 94 28
Width: 1199
VWidth: 0
GlyphClass: 2
Flags: W
HStem: 1428 20G<540.929 653.043>
LayerCount: 2
UndoRedoHistory
Layer: 1
Undoes
EndUndoes
Redoes
EndRedoes
EndUndoRedoHistory
Fore
SplineSet
95 570 m 1
 551.324 1448 l 1
 642.504 1448 l 1
 1105.15 570 l 1
 901.147 570 l 1
 594.657 1176 l 1
 301 570 l 1
 95 570 l 1
EndSplineSet
EndChar

StartChar: asciitilde
Encoding: 126 126 29
Width: 1644
VWidth: 0
GlyphClass: 2
Flags: W
HStem: 708 158<938.106 1172.91> 896 158<462.139 722.68>
VStem: 239 135<735.204 793.559> 1260.2 147<966.684 1033.49>
LayerCount: 2
UndoRedoHistory
Layer: 1
Undoes
EndUndoes
Redoes
EndRedoes
EndUndoRedoHistory
Fore
SplineSet
374 678 m 1
 239 742 l 1
 267 875 346 979 451.639 1028 c 1
 487.75 1046 527.472 1054 572.611 1054 c 0
 636.708 1054 697.194 1027 749.555 1005 c 1
 835.319 967 920.179 915 1005.94 880 c 0
 1029.42 871 1049.28 866 1066.43 866 c 0
 1173.2 866 1238.2 979 1260.2 1075 c 1
 1407.2 1029 l 1
 1374.2 890 1302.2 782 1182.2 731 c 0
 1144.97 715 1107.05 708 1064.62 708 c 0
 1009.55 708 954.485 735 910.249 757 c 0
 826.291 797 740.527 850 649.347 882 c 0
 622.263 891 596.986 896 575.319 896 c 0
 457.958 896 396.569 784 374 678 c 1
EndSplineSet
EndChar

StartChar: asterisk
Encoding: 42 42 30
Width: 1840
VWidth: 0
GlyphClass: 2
Flags: W
HStem: 1450 20G<625 776>
VStem: 625 151<1299.88 1470>
LayerCount: 2
UndoRedoHistory
Layer: 1
Undoes
EndUndoes
Redoes
EndRedoes
EndUndoRedoHistory
Fore
SplineSet
882 632 m 1
 713 944 l 1
 550 641 l 1
 404 729 l 1
 622 1009 l 1
 308 1100 l 1
 333 1259 l 1
 655 1114 l 1
 625 1470 l 1
 776 1470 l 1
 763 1120 l 1
 1027 1262 l 1
 1103 1116 l 1
 800 1013 l 1
 1030 718 l 1
 882 632 l 1
EndSplineSet
EndChar

StartChar: at
Encoding: 64 64 31
Width: 1876
VWidth: 0
GlyphClass: 2
Flags: W
HStem: -111 173<765.284 1283.28> 251 133<1272.97 1429.62> 252 166<795.785 967.33> 976 154<893.457 1080.66> 1295 172<764.787 1227.87>
VStem: 144 236<435.12 917.134> 518.125 238<457.229 809.243> 1107.3 154<584.129 717.335> 1532.14 201<531.596 1005.35>
LayerCount: 2
UndoRedoHistory
Layer: 1
Undoes
EndUndoes
Redoes
EndRedoes
EndUndoRedoHistory
Fore
SplineSet
880.708 418 m 0xbf80
 980.916 418 1107.3 554 1107.3 821 c 0
 1107.3 928 1058.55 976 998.971 976 c 0
 895.152 976 756.125 836 756.125 604 c 0
 756.125 479 813 418 880.708 418 c 0xbf80
986.333 -111 m 0
 549.125 -111 144 167 144 674 c 0
 144 1237 587.125 1467 998.971 1467 c 0
 1371.44 1467 1733.14 1243 1733.14 785 c 0
 1733.14 464 1554.14 251 1308.25 251 c 0xdf80
 1200.3 251 1090.15 305 1089.25 429 c 1
 1018.83 308 920.43 252 825.638 252 c 0xbf80
 669.125 252 518.125 389 518.125 625 c 0
 518.125 903 753.125 1130 952.027 1130 c 0
 1030.57 1130 1105.5 1096 1173.3 1014 c 1
 1212.3 1099 l 1
 1383.18 1099 l 1
 1310.05 745 1261.3 498 1261.3 481 c 0
 1261.3 421 1297.42 384 1343.46 384 c 0xdf80
 1423.8 384 1532.14 497 1532.14 790 c 0
 1532.14 1125 1277.55 1295 997.166 1295 c 0
 701.125 1295 380 1093 380 679 c 0
 380 264 691.125 62 1014.32 62 c 0
 1152.3 62 1300.12 98 1422.9 169 c 1
 1504.15 30 l 1
 1346.17 -65 1160.3 -111 986.333 -111 c 0
EndSplineSet
EndChar

StartChar: b
Encoding: 98 98 32
Width: 1210
VWidth: 0
GlyphClass: 2
Flags: W
HStem: -23.6089 194.47<404.74 705.016> 819.867 194.143<530.356 773.257> 1450 20G<160 402>
VStem: 160 242<183.778 676.56 867 1470> 866.432 247.998<343.487 718.194>
LayerCount: 2
UndoRedoHistory
Layer: 1
Undoes
EndUndoes
Redoes
EndRedoes
EndUndoRedoHistory
Fore
SplineSet
559.45 170.861 m 0
 679.036 170.861 866.432 261.469 866.432 541 c 0
 866.432 708.385 777.609 819.867 660.858 819.867 c 0
 528.388 819.867 402 702.092 402 473 c 2
 402 196 l 1
 450.079 180.351 504.565 170.861 559.45 170.861 c 0
567.751 -23.6089 m 0
 437.173 -23.6089 298.725 3.25774 160 55 c 1
 160 1470 l 1
 402 1470 l 1
 402 867 l 1
 477.067 966.988 578.888 1014.01 703.144 1014.01 c 0
 904.764 1014.01 1114.43 861.239 1114.43 545 c 0
 1114.43 154.591 822.979 -23.6089 567.751 -23.6089 c 0
EndSplineSet
EndChar

StartChar: backslash
Encoding: 92 92 33
Width: 1219
VWidth: 0
GlyphClass: 2
Flags: W
HStem: 0 21G<774.243 1017.24> 1428 20G<203 447.973>
LayerCount: 2
UndoRedoHistory
Layer: 1
Undoes
EndUndoes
Redoes
EndRedoes
EndUndoRedoHistory
Fore
SplineSet
782.244 0 m 1
 203 1448 l 1
 440 1448 l 1
 1017.24 0 l 1
 782.244 0 l 1
EndSplineSet
EndChar

StartChar: bar
Encoding: 124 124 34
Width: 881
VWidth: 0
GlyphClass: 2
Flags: W
VStem: 348 185<-409 1526>
LayerCount: 2
UndoRedoHistory
Layer: 1
Undoes
EndUndoes
Redoes
EndRedoes
EndUndoRedoHistory
Fore
SplineSet
348 -409 m 1
 348 1526 l 1
 533 1526 l 1
 533 -409 l 1
 348 -409 l 1
EndSplineSet
EndChar

StartChar: braceleft
Encoding: 123 123 35
Width: 1104
VWidth: 0
GlyphClass: 2
Flags: W
HStem: -456 148<581.209 715> 476 142<151 261.6> 1404 148<586.075 715>
VStem: 336 188<-251.612 400.273 695.296 1343.37>
LayerCount: 2
UndoRedoHistory
Layer: 1
Undoes
EndUndoes
Redoes
EndRedoes
EndUndoRedoHistory
Fore
SplineSet
715 -456 m 1
 497 -447 336 -367 336 -138 c 2
 337 169 l 2
 337 343 311 459 151 476 c 1
 151 618 l 1
 292 631 341 739 341 894 c 1
 340 943 338 991 338 1041 c 0
 338 1090 337 1141 336 1190 c 1
 336 1440 462 1552 715 1552 c 1
 715 1404 l 1
 584 1400 531 1343 531 1207 c 2
 530 868 l 2
 530 713 463 599 366 547 c 1
 474 496 525 383 525 230 c 0
 525 155 524 50 524 -27 c 0
 524 -154 534 -264 624 -295 c 0
 648 -304 679 -308 715 -308 c 1
 715 -456 l 1
EndSplineSet
EndChar

StartChar: braceright
Encoding: 125 125 36
Width: 963
VWidth: 0
GlyphClass: 2
Flags: W
HStem: -326 148<180 313.679> 536 142<635.409 743> 1404 148<180 316.228>
VStem: 365 194<-129.757 469.514 760.372 1352.03>
LayerCount: 2
UndoRedoHistory
Layer: 1
Undoes
EndUndoes
Redoes
EndRedoes
EndUndoRedoHistory
Fore
SplineSet
180 -326 m 1
 180 -178 l 1
 340 -178 369 -107 369 103 c 2
 369 290 l 2
 369 443 422 556 530 607 c 1
 430 659 365 772 365 928 c 2
 365 1207 l 2
 365 1343 312 1400 180 1404 c 1
 180 1552 l 1
 432 1552 559 1440 559 1190 c 2
 559 954 l 2
 559 799 604 691 745 678 c 1
 743 536 l 1
 624 524 562 455 561 335 c 2
 559 -8 l 2
 558 -237 398 -317 180 -326 c 1
EndSplineSet
EndChar

StartChar: bracketleft
Encoding: 91 91 37
Width: 908
VWidth: 0
GlyphClass: 2
Flags: W
HStem: -214 129<506 698> 1340 130<506 698>
VStem: 247 451<-214 -85 1340 1470> 247 259<-85 1340>
LayerCount: 2
UndoRedoHistory
Layer: 1
Undoes
EndUndoes
Redoes
EndRedoes
EndUndoRedoHistory
Fore
SplineSet
247 -214 m 1xe0
 247 1470 l 1
 698 1470 l 1
 698 1340 l 1xe0
 506 1340 l 1
 506 -85 l 1xd0
 698 -85 l 1
 698 -214 l 1
 247 -214 l 1xe0
EndSplineSet
EndChar

StartChar: bracketright
Encoding: 93 93 38
Width: 1105
VWidth: 0
GlyphClass: 2
Flags: W
HStem: -232 129<166 359> 1340 130<167 359>
VStem: 167 450<-232 -103 1340 1470> 359 258<-103 1340>
LayerCount: 2
UndoRedoHistory
Layer: 1
Undoes
EndUndoes
Redoes
EndRedoes
EndUndoRedoHistory
Fore
SplineSet
166 -232 m 1xe0
 166 -103 l 1
 359 -103 l 1
 359 1340 l 1xd0
 167 1340 l 1
 167 1470 l 1
 617 1470 l 1
 617 -232 l 1
 166 -232 l 1xe0
EndSplineSet
EndChar

StartChar: c
Encoding: 99 99 39
Width: 1023
VWidth: 0
GlyphClass: 2
Flags: W
HStem: -22 196<461.208 771.386> 817 199<470.594 777.781>
VStem: 96 248<300.545 677.539>
LayerCount: 2
UndoRedoHistory
Layer: 1
Undoes
EndUndoes
Redoes
EndRedoes
EndUndoRedoHistory
Fore
SplineSet
588 -22 m 0
 278 -22 96 194 96 499 c 0
 96 816 336 1016 603 1016 c 0
 711 1016 824 982 927 906 c 1
 856 726 l 1
 767 790 684 817 612 817 c 0
 450 817 344 677 344 500 c 0
 344 309 434 174 604 174 c 0
 706 174 809 229 879 290 c 1
 957 104 l 1
 845 17 698 -22 588 -22 c 0
EndSplineSet
EndChar

StartChar: colon
Encoding: 58 58 40
Width: 951
VWidth: 0
GlyphClass: 2
Flags: W
HStem: -20 247<280 535> 980 247<280 535>
VStem: 280 255<-20 227 980 1227>
LayerCount: 2
UndoRedoHistory
Layer: 1
Undoes
EndUndoes
Redoes
EndRedoes
EndUndoRedoHistory
Fore
SplineSet
280 980 m 1
 280 1227 l 1
 535 1227 l 1
 535 980 l 1
 280 980 l 1
280 -20 m 1
 280 227 l 1
 535 227 l 1
 535 -20 l 1
 280 -20 l 1
EndSplineSet
EndChar

StartChar: comma
Encoding: 44 44 41
Width: 522
VWidth: 0
GlyphClass: 2
Flags: W
HStem: -331 544<183 242>
VStem: 58 374
LayerCount: 2
UndoRedoHistory
Layer: 1
Undoes
EndUndoes
Redoes
EndRedoes
EndUndoRedoHistory
Fore
SplineSet
58 -331 m 1
 183 213 l 1
 432 213 l 1
 242 -331 l 1
 58 -331 l 1
EndSplineSet
EndChar

StartChar: d
Encoding: 100 100 42
Width: 1224
VWidth: 0
GlyphClass: 2
Flags: W
HStem: -22 196<431.326 687.438 1076.61 1174> 820 196<489.735 792.608> 1450 20G<795 1037>
VStem: 96 248<273.142 658.87> 795 242<288.014 809.328 990 1470>
LayerCount: 2
UndoRedoHistory
Layer: 1
Undoes
EndUndoes
Redoes
EndRedoes
EndUndoRedoHistory
Fore
SplineSet
837 150 m 1
 769 41 642 -22 515 -22 c 0
 320 -22 96 115 96 440 c 0
 96 831 368 1016 623 1016 c 0
 680 1016 737 1007 795 990 c 1
 795 1470 l 1
 1037 1470 l 1
 1037 365 l 2
 1037 217 1082 176 1206 176 c 1
 1174 -16 l 1
 963 -16 887 24 837 150 c 1
344 446 m 0
 344 264 445 174 552 174 c 0
 674 174 795 259 795 488 c 2
 795 798 l 1
 751 811 702 820 653 820 c 0
 500 820 344 726 344 446 c 0
EndSplineSet
EndChar

StartChar: dollar
Encoding: 36 36 43
Width: 1245
VWidth: 0
GlyphClass: 2
Flags: W
HStem: -22 202<414.64 810.803> 1252 218<468.917 878.249>
VStem: 147 263<965.103 1197.47> 598 131<-213 1628> 893 236<258.962 507.746>
LayerCount: 2
UndoRedoHistory
Layer: 1
Undoes
EndUndoes
Redoes
EndRedoes
EndUndoRedoHistory
Fore
SplineSet
598 -213 m 1
 600 1628 l 1
 729 1628 l 1
 729 -213 l 1
 598 -213 l 1
EndSplineSet
Refer: 18 83 N 1 0 0 1 0 0 2
EndChar

StartChar: e
Encoding: 101 101 44
Width: 1067
VWidth: 0
GlyphClass: 2
Flags: W
HStem: -22 195<466.702 791.247> 835 181<474.139 701.133>
VStem: 96 240<497 673.707> 723.946 227.775<622.519 810.805>
LayerCount: 2
UndoRedoHistory
Layer: 1
Undoes
EndUndoes
Redoes
EndRedoes
EndUndoRedoHistory
Fore
SplineSet
336 497 m 1
 628 561 723.946 608 723.946 722 c 0
 723.946 787 676.347 835 598.708 835 c 0
 446.139 835 336 664 336 512 c 2
 336 497 l 1
586.972 -22 m 0
 330 -22 96 147 96 488 c 0
 96 790 310 1016 593 1016 c 0
 818 1016 951.721 861 951.721 714 c 0
 951.721 530 800 399 374 333 c 1
 402 250 492.18 173 598.708 173 c 0
 681.763 173 783 191 893 282 c 1
 981 114 l 1
 870 17 713.381 -22 586.972 -22 c 0
EndSplineSet
EndChar

StartChar: eight
Encoding: 56 56 45
Width: 1244
VWidth: 0
GlyphClass: 2
Flags: W
HStem: -22 200<472.002 780.289> 1265 205<483.825 772.433>
VStem: 142 260<244.423 514.296> 175 249<962.828 1207.38> 828 242.55<961.54 1208.41> 852 250<249.18 514.575>
LayerCount: 2
UndoRedoHistory
Layer: 1
Undoes
EndUndoes
Redoes
EndRedoes
EndUndoRedoHistory
Fore
SplineSet
627.18 863 m 1xd8
 740.027 885 828 972 828 1097 c 0
 828 1214 740 1265 627 1265 c 0
 505 1265 424 1206 424 1097 c 0
 424 972 512.528 885 627.18 863 c 1xd8
627 178 m 0
 764 178 852 247 852 373 c 0
 852 513 740.027 611 627.18 635 c 1
 502.597 609 402 502 402 373 c 0xe4
 402 239 497 178 627 178 c 0
622.666 -22 m 0
 343 -22 142 113 142 362 c 0xe4
 142 577 300 694 438 747 c 1
 312 796 175 912 175 1098 c 0
 175 1343 371 1470 622.666 1470 c 0
 912.555 1470 1070.55 1296 1070.55 1098 c 0xd8
 1070.55 922 931 796 806 747 c 1
 945 694 1102 577 1102 362 c 0
 1102 80 889.555 -22 622.666 -22 c 0
EndSplineSet
EndChar

StartChar: equal
Encoding: 61 61 46
Width: 1259
VWidth: 0
GlyphClass: 2
Flags: W
HStem: 450 140<218 1042.98> 853 143<217 1042.98>
LayerCount: 2
UndoRedoHistory
Layer: 1
Undoes
EndUndoes
Redoes
EndRedoes
EndUndoRedoHistory
Fore
SplineSet
218 450 m 1
 218 590 l 1
 1042.98 590 l 1
 1042.98 450 l 1
 218 450 l 1
217 853 m 1
 217 996 l 1
 1042.98 996 l 1
 1042.98 853 l 1
 217 853 l 1
EndSplineSet
EndChar

StartChar: exclam
Encoding: 33 33 47
Width: 761
VWidth: 0
GlyphClass: 2
Flags: W
HStem: -20 351<257.698 503.302> 1450 20G<218 532>
VStem: 200 361<38.707 272.129> 309 129<498 646.24>
LayerCount: 2
UndoRedoHistory
Layer: 1
Undoes
EndUndoes
Redoes
EndRedoes
EndUndoRedoHistory
Fore
SplineSet
309 498 m 1xd0
 218 1470 l 1
 532 1470 l 1
 438 498 l 1
 309 498 l 1xd0
380 -20 m 0
 275 -20 200 55 200 158 c 0
 200 258 277 331 381 331 c 0
 485 331 561 257 561 155 c 0xe0
 561 54 484 -20 380 -20 c 0
EndSplineSet
EndChar

StartChar: f
Encoding: 102 102 48
Width: 750
VWidth: 0
GlyphClass: 2
Flags: W
HStem: -410 197<86 200.53> 844 152<48 244 486 695.689> 1282 188<536.99 766>
VStem: 244 242<-164.868 844 996 1225.39>
LayerCount: 2
UndoRedoHistory
Layer: 1
Undoes
EndUndoes
Redoes
EndRedoes
EndUndoRedoHistory
Fore
SplineSet
86 -410 m 1
 65 -213 l 1
 195 -213 244 -155 244 -19 c 2
 244 844 l 1
 48 844 l 1
 48 996 l 1
 244 996 l 1
 244 1116 l 2
 244 1406 442 1470 715 1470 c 2
 766 1470 l 1
 766 1282 l 1
 547 1282 486 1249 486 1081 c 2
 486 996 l 1
 695.689 996 l 1
 695.689 844 l 1
 486 844 l 1
 486 -11 l 2
 486 -273 355 -410 86 -410 c 1
EndSplineSet
EndChar

StartChar: five
Encoding: 53 53 49
Width: 1250
VWidth: 0
GlyphClass: 2
Flags: W
HStem: -21 205<418.507 732.283> 733 196<509.252 748.856> 1205 199<475 979>
VStem: 247 214<851 1205> 846 242<307.083 626.047>
LayerCount: 2
UndoRedoHistory
Layer: 1
Undoes
EndUndoes
Redoes
EndRedoes
EndUndoRedoHistory
Fore
SplineSet
604 -21 m 0
 459 -21 305 32 179 136 c 1
 269 322 l 1
 395 224 503 184 589 184 c 0
 746 184 846 313 846 459 c 0
 846 639 740 731 627 733 c 1
 554 733 489 717 422 644 c 1
 247 644 l 1
 247 1404 l 1
 979 1404 l 1
 979 1205 l 1
 475 1205 l 1
 461 851 l 1
 503 885 571 929 694 929 c 0
 883 929 1088 806 1088 466 c 0
 1088 138 854 -21 604 -21 c 0
EndSplineSet
EndChar

StartChar: four
Encoding: 52 52 50
Width: 1244
VWidth: 0
GlyphClass: 2
Flags: W
HStem: 0 21G<731 958> 322 198<330 731 958 1155> 1428 20G<683.251 958>
VStem: 731 227<0 322 520 1151>
LayerCount: 2
UndoRedoHistory
Layer: 1
Undoes
EndUndoes
Redoes
EndRedoes
EndUndoRedoHistory
Fore
SplineSet
330 520 m 1
 731 520 l 1
 731 1151 l 1
 555 874 l 1
 330 520 l 1
731 0 m 1
 731 322 l 1
 100 322 l 1
 100 513 l 1
 696 1448 l 1
 958 1448 l 1
 958 520 l 1
 1155 520 l 1
 1155 322 l 1
 958 322 l 1
 958 0 l 1
 731 0 l 1
EndSplineSet
EndChar

StartChar: g
Encoding: 103 103 51
Width: 1193
VWidth: 0
GlyphClass: 2
Flags: W
HStem: -543 195<330.222 685.654> -22 196<435.155 682.964> 820 196<499.058 805.84>
VStem: 96 248<275.05 650.825> 808 241<-215.318 107 318.189 809.025>
LayerCount: 2
UndoRedoHistory
Layer: 1
Undoes
EndUndoes
Redoes
EndRedoes
EndUndoRedoHistory
Fore
SplineSet
550.812 174 m 0
 698.868 174 808 316 808 509 c 2
 808 797 l 1
 772 811 701.576 820 649.215 820 c 0
 480.396 820 344 689 344 434 c 0
 344 282 439.771 174 550.812 174 c 0
551.716 -543 m 0
 440.674 -543 314 -512 176 -450 c 1
 208 -241 l 1
 302 -301 423.521 -348 529.146 -348 c 0
 669.077 -348 807 -266 807 -25 c 2
 807 107 l 1
 739 14 617.829 -22 522.135 -22 c 0
 278 -22 96 163 96 424 c 0
 96 770 315 1016 648.466 1016 c 0
 774.778 1016 953 962 1049 906 c 1
 1049 -7 l 2
 1049 -363 824.511 -543 551.716 -543 c 0
EndSplineSet
EndChar

StartChar: grave
Encoding: 96 96 52
Width: 1044
VWidth: 0
GlyphClass: 2
Flags: W
HStem: 2064 318
VStem: -104 519
LayerCount: 2
UndoRedoHistory
Layer: 1
Undoes
EndUndoes
Redoes
EndRedoes
EndUndoRedoHistory
Fore
SplineSet
226 2064 m 1
 -104 2382 l 1
 169 2382 l 1
 415 2064 l 1
 226 2064 l 1
EndSplineSet
EndChar

StartChar: greater
Encoding: 62 62 53
Width: 1403
VWidth: 0
GlyphClass: 2
Flags: W
LayerCount: 2
UndoRedoHistory
Layer: 1
Undoes
EndUndoes
Redoes
EndRedoes
EndUndoRedoHistory
Fore
SplineSet
282 102 m 1
 282 255 l 1
 1017.98 597 l 1
 288 966 l 1
 288 1118 l 1
 1237.98 636 l 1
 1237.98 547 l 1
 282 102 l 1
EndSplineSet
EndChar

StartChar: h
Encoding: 104 104 54
Width: 1228
VWidth: 0
GlyphClass: 2
Flags: W
HStem: -16 193<1076.62 1174> 0 21G<150 392> 804 212<496.699 739.489> 1450 20G<150 392>
VStem: 150 242<0 708.862 895 1470> 808 242<207.319 722.834>
LayerCount: 2
UndoRedoHistory
Layer: 1
Undoes
EndUndoes
Redoes
EndRedoes
EndUndoRedoHistory
Fore
SplineSet
1174 -16 m 1xbc
 1129 -16 l 2xbc
 894 -16 808 88 808 298 c 2
 808 549 l 2
 808 702 748 804 620 804 c 0
 458 804 392 677 392 538 c 2
 392 0 l 1
 150 0 l 1x7c
 150 1470 l 1
 392 1470 l 1
 392 895 l 1
 471.559 979 587 1016 678 1016 c 0
 905 1016 1050 839 1050 572 c 2
 1050 352 l 2
 1050 224 1079 177 1186 177 c 2
 1208 177 l 1
 1174 -16 l 1xbc
EndSplineSet
EndChar

StartChar: hyphen
Encoding: 45 45 55
Width: 1264
VWidth: 0
GlyphClass: 2
Flags: W
HStem: 657 168<243 1022.03>
LayerCount: 2
UndoRedoHistory
Layer: 1
Undoes
EndUndoes
Redoes
EndRedoes
EndUndoRedoHistory
Fore
SplineSet
243 657 m 1
 243 825 l 1
 1022.03 825 l 1
 1022.03 657 l 1
 243 657 l 1
EndSplineSet
EndChar

StartChar: i
Encoding: 105 105 56
Width: 701
VWidth: 0
GlyphClass: 2
Flags: W
HStem: 976 20G<167 409> 1176 310<173 414.625>
VStem: 126 336<1221.59 1437.76> 167 242<223.911 996>
LayerCount: 2
UndoRedoHistory
Layer: 1
Undoes
EndUndoes
Redoes
EndRedoes
EndUndoRedoHistory
Fore
SplineSet
293 1176 m 0xe0
 195 1176 126 1239 126 1331 c 0
 126 1423 195 1486 295 1486 c 0
 392 1486 462 1421 462 1330 c 0
 462 1239 392 1176 293 1176 c 0xe0
717 38 m 1
 487 -65 167 -22 167 277 c 2
 167 996 l 1
 409 996 l 1
 409 339 l 2xd0
 409 163 545 173 686 222 c 1
 717 38 l 1
EndSplineSet
EndChar

StartChar: j
Encoding: 106 106 57
Width: 651
VWidth: 0
GlyphClass: 2
Flags: W
HStem: -499 176<-56.1533 185.588> 976 20G<230 472> 1169 312<217.375 459.5>
VStem: 170 337<1215.36 1434.23> 230 242<-281.254 996>
LayerCount: 2
UndoRedoHistory
Layer: 1
Undoes
EndUndoes
Redoes
EndRedoes
EndUndoRedoHistory
Fore
SplineSet
337 1169 m 0xf0
 240 1169 170 1234 170 1324 c 0
 170 1416 240 1481 339 1481 c 0
 437 1481 507 1416 507 1323 c 0
 507 1233 437 1169 337 1169 c 0xf0
102 -499 m 0
 -1 -499 -74 -475 -74 -475 c 1
 -53 -305 l 1
 -53 -305 12 -323 80 -323 c 0
 178 -323 230 -280 230 -90 c 2
 230 996 l 1
 472 996 l 1
 472 -93 l 2xe8
 472 -325 408 -499 102 -499 c 0
EndSplineSet
EndChar

StartChar: k
Encoding: 107 107 58
Width: 1159
VWidth: 0
GlyphClass: 2
Flags: W
HStem: 1450 20G<150 392>
VStem: 150 242<389 1470>
LayerCount: 2
UndoRedoHistory
Layer: 1
Undoes
EndUndoes
Redoes
EndRedoes
EndUndoRedoHistory
Fore
SplineSet
1151 192 m 1
 1114 0 l 1
 996 -45 879 -45 764 120 c 2
 611 340 l 1
 377 33 l 1
 296 -70 150 -29 150 100 c 2
 150 1470 l 1
 392 1470 l 1
 392 389 l 1
 812 987 l 1
 1034 926 l 1
 746 524 l 1
 916 287 l 1
 1022 152 1038 162 1151 192 c 1
EndSplineSet
EndChar

StartChar: l
Encoding: 108 108 59
Width: 725
VWidth: 0
GlyphClass: 2
Flags: W
HStem: -11 202<431.789 721.255> 1450 20G<152 394>
VStem: 152 242<233.88 1470>
LayerCount: 2
UndoRedoHistory
Layer: 1
Undoes
EndUndoes
Redoes
EndRedoes
EndUndoRedoHistory
Fore
SplineSet
718 218 m 1
 743 28 l 1
 656 4 573 -11 496 -11 c 0
 296 -11 152 83 152 301 c 2
 152 1470 l 1
 394 1470 l 1
 394 353 l 2
 394 241 454 191 550 191 c 0
 595 191 671 203 718 218 c 1
EndSplineSet
EndChar

StartChar: less
Encoding: 60 60 60
Width: 2516
VWidth: 0
GlyphClass: 2
Flags: W
LayerCount: 2
UndoRedoHistory
Layer: 1
Undoes
EndUndoes
Redoes
EndRedoes
EndUndoRedoHistory
Fore
SplineSet
1335.27 84 m 1
 386 542 l 1
 386 629 l 1
 1339.27 1098 l 1
 1339.27 947 l 1
 604 586 l 1
 1335.27 236 l 1
 1335.27 84 l 1
EndSplineSet
EndChar

StartChar: m
Encoding: 109 109 61
Width: 1871
VWidth: 0
GlyphClass: 2
Flags: W
HStem: -16 192<1716.93 1817> 0 21G<168 410 807 1049> 804 212<520.387 735.65 1132.45 1366.73>
VStem: 168 242<0 707.361> 807 242<0 714.395> 1438 242.44<206.549 722.834>
LayerCount: 2
UndoRedoHistory
Layer: 1
Undoes
EndUndoes
Redoes
EndRedoes
EndUndoRedoHistory
Fore
SplineSet
1817 -16 m 1xbc
 1787 -16 l 2xbc
 1521 -16 1438 117 1438 339 c 2
 1438 549 l 2
 1438 702 1376.7 804 1246.4 804 c 0
 1140.46 804 1049 705 1049 557 c 2
 1049 0 l 1
 807 0 l 1
 807 549 l 2
 807 722 725.972 804 617.638 804 c 0
 493.958 804 410 690 410 534 c 2
 410 0 l 1
 168 0 l 1x7c
 168 600 l 2
 168 701 137 817 42 896 c 1
 269 985 l 1
 307 957 356 873 369 824 c 1
 429.861 940 565.277 1016 688.958 1016 c 0
 835.044 1016 933.044 928 981.05 826 c 1
 1063.08 972 1207.7 1016 1301.67 1016 c 0
 1537.44 1016 1680.44 839 1680.44 572 c 2
 1680.44 357 l 2
 1680.44 237 1712 176 1826 176 c 2
 1851 176 l 1
 1817 -16 l 1xbc
EndSplineSet
EndChar

StartChar: n
Encoding: 110 110 62
Width: 1257
VWidth: 0
GlyphClass: 2
Flags: W
HStem: -16 192<1099.21 1203> 0 21G<171 413> 804 212<528.315 763.023>
VStem: 171 242<0 698.295> 824 242<212.803 742.017>
LayerCount: 2
UndoRedoHistory
Layer: 1
Undoes
EndUndoes
Redoes
EndRedoes
EndUndoRedoHistory
Fore
SplineSet
1237 176 m 1xb8
 1203 -16 l 1
 1168 -16 l 2xb8
 907 -16 824 121 824 368 c 2
 824 549 l 2
 824 702 781 804 647 804 c 0
 534 804 413 717 413 542 c 2
 413 0 l 1
 171 0 l 1x78
 171 602 l 2
 171 723 129 819 42 896 c 1
 268 985 l 1
 316 948 360 869 372 823 c 1
 433 939 571 1016 709 1016 c 0
 938 1016 1066 839 1066 572 c 2
 1066 345 l 2
 1066 236 1099 176 1220 176 c 2
 1237 176 l 1xb8
EndSplineSet
EndChar

StartChar: nine
Encoding: 57 57 63
Width: 1244
VWidth: 0
GlyphClass: 2
Flags: W
HStem: 506 195<488.088 680.861> 1271 199<479.111 767.527>
VStem: 123 237<829.855 1152.22> 883.452 218.998<823.037 1152.02>
LayerCount: 2
UndoRedoHistory
Layer: 1
Undoes
EndUndoes
Redoes
EndRedoes
EndUndoRedoHistory
Fore
SplineSet
628.074 701 m 0
 753.56 701 883.452 799 883.452 996 c 0
 883.452 1178 751.754 1271 623.56 1271 c 0
 496.269 1271 360 1180 360 998 c 0
 360 802 498.977 701 628.074 701 c 0
569.394 -132 m 1
 382.519 -19 l 1
 681.338 516 l 1
 670.504 510 647.032 506 594.671 506 c 0
 339 506 123 718 123 984 c 0
 123 1313 385.227 1470 615.435 1470 c 0
 846.545 1470 1102.45 1308 1102.45 979 c 0
 1102.45 854 1007.45 636 924.452 498 c 1
 569.394 -132 l 1
EndSplineSet
EndChar

StartChar: numbersign
Encoding: 35 35 64
Width: 2104
VWidth: 0
GlyphClass: 2
Flags: W
HStem: 372 147<351 629 805 1058 1238 1505> 843 145<430 708 887 1139 1317 1579> 1450 20G<810.515 969 1241.64 1405>
LayerCount: 2
UndoRedoHistory
Layer: 1
Undoes
EndUndoes
Redoes
EndRedoes
EndUndoRedoHistory
Fore
SplineSet
805 519 m 1
 1085 519 l 1
 1139 843 l 1
 863 843 l 1
 805 519 l 1
535 -127 m 1
 629 372 l 1
 338 372 l 1
 351 519 l 1
 654 519 l 1
 672 630 690 734 708 843 c 1
 414 843 l 1
 430 988 l 1
 730 988 l 1
 814 1470 l 1
 969 1470 l 1
 887 988 l 1
 1164 988 l 1
 1245 1470 l 1
 1405 1470 l 1
 1317 988 l 1
 1596 988 l 1
 1579 843 l 1
 1293 843 l 1
 1238 519 l 1
 1522 519 l 1
 1505 372 l 1
 1215 372 l 1
 1127 -127 l 1
 974 -127 l 1
 1058 372 l 1
 782 372 l 1
 695 -127 l 1
 535 -127 l 1
EndSplineSet
EndChar

StartChar: o
Encoding: 111 111 65
Width: 1194
VWidth: 0
GlyphClass: 2
Flags: W
HStem: -22 196<460.494 738.134> 820 196<459.579 737.047>
VStem: 96 248<297.134 695.572> 850.056 247.954<297.565 690.151>
LayerCount: 2
UndoRedoHistory
Layer: 1
Undoes
EndUndoes
Redoes
EndRedoes
EndUndoRedoHistory
Fore
SplineSet
594.972 -22 m 0
 304 -22 96 189 96 496 c 0
 96 804 303 1016 594.069 1016 c 0
 889 1016 1098 806 1098.01 497 c 0
 1098 190 891 -22 594.972 -22 c 0
596.777 174 m 0
 757 174 850.056 303 850.056 496 c 0
 850.056 689 756 820 594.972 820 c 0
 434 820 344 689 344 496 c 0
 344 303 435 174 596.777 174 c 0
EndSplineSet
EndChar

StartChar: one
Encoding: 49 49 66
Width: 989
VWidth: 0
GlyphClass: 2
Flags: W
HStem: 0 21G<443 711> 1428 20G<415.5 711>
VStem: 443 268<0 1233>
LayerCount: 2
UndoRedoHistory
Layer: 1
Undoes
EndUndoes
Redoes
EndRedoes
EndUndoRedoHistory
Fore
SplineSet
443 0 m 1
 443 1233 l 1
 377 1182 291 1135 185 1091 c 1
 125 1262 l 1
 241 1314 382 1397 449 1448 c 1
 711 1448 l 1
 711 0 l 1
 443 0 l 1
EndSplineSet
EndChar

StartChar: p
Encoding: 112 112 67
Width: 1202
VWidth: 0
GlyphClass: 2
Flags: W
HStem: -496 21G<163 405> -23 196<407.786 717.711> 819 196<523.28 776.269>
VStem: 163 242<-496 4 184.019 681.244> 859 247<329 729.896>
LayerCount: 2
UndoRedoHistory
Layer: 1
Undoes
EndUndoes
Redoes
EndRedoes
EndUndoRedoHistory
Fore
SplineSet
405 196 m 1
 458.06 181 489 173 543 173 c 0
 750 173 859 302 859 552 c 0
 859 711 783 819 653 819 c 0
 522 819 405 709 405 470 c 2
 405 196 l 1
163 -496 m 1
 163 610 l 2
 163 773 70 865 34 896 c 1
 260 985 l 1
 289 964 343 897 364 824 c 1
 431.01 936 507 1015 692 1015 c 0
 866 1015 1106 909 1106 554 c 0
 1106 201 900 -23 579 -23 c 0
 511 -23 471.586 -14 405 4 c 1
 405 -496 l 1
 163 -496 l 1
EndSplineSet
EndChar

StartChar: parenleft
Encoding: 40 40 68
Width: 1105
VWidth: 0
GlyphClass: 2
Flags: W
VStem: 252 308<253.644 899.534>
LayerCount: 2
UndoRedoHistory
Layer: 1
Undoes
EndUndoes
Redoes
EndRedoes
EndUndoRedoHistory
Fore
SplineSet
554 -316 m 1
 352 56 252 265 252 573 c 0
 252 889 358 1105 566 1492 c 1
 829 1492 l 1
 651 1103 560 887 560 570 c 0
 560 263 644 56 817 -316 c 1
 554 -316 l 1
EndSplineSet
EndChar

StartChar: parenright
Encoding: 41 41 69
Width: 1105
VWidth: 0
GlyphClass: 2
Flags: W
VStem: 483 308<253.644 899.534>
LayerCount: 2
UndoRedoHistory
Layer: 1
Undoes
EndUndoes
Redoes
EndRedoes
EndUndoRedoHistory
Fore
SplineSet
225 -316 m 1
 399 56 483 263 483 570 c 0
 483 887 391 1103 214 1492 c 1
 477 1492 l 1
 684 1105 791 889 791 573 c 0
 791 265 691 56 488 -316 c 1
 225 -316 l 1
EndSplineSet
EndChar

StartChar: percent
Encoding: 37 37 70
Width: 2284
VWidth: 0
GlyphClass: 2
Flags: W
HStem: -17 133<1651.95 1928.35> 0 21G<537 732.054> 576 133<355.946 632.346> 745 132<1653.81 1931.22> 1338 132<357.808 635.224>
VStem: 78 169<829.247 1217.59> 743 167<829.235 1220.41> 1374 169<236.247 624.587> 2039 167<236.235 627.407>
LayerCount: 2
UndoRedoHistory
Layer: 1
Undoes
EndUndoes
Redoes
EndRedoes
EndUndoRedoHistory
Fore
SplineSet
537 0 m 1x7f80
 1587 1470 l 1
 1751 1470 l 1
 718 0 l 1
 537 0 l 1x7f80
496 709 m 0
 667 709 743 855 743 1026 c 0
 743 1212 657 1338 497 1338 c 0
 323 1338 247 1194 247 1022 c 0
 247 848 322 709 496 709 c 0
492 576 m 0
 214 576 78 781 78 1020 c 0
 78 1301 255 1470 498 1470 c 0
 765 1470 910 1290 910 1025 c 0
 910 745 734 576 492 576 c 0
1788 -17 m 0xbf80
 1510 -17 1374 188 1374 427 c 0
 1374 708 1551 877 1794 877 c 0
 2061 877 2206 697 2206 432 c 0
 2206 152 2030 -17 1788 -17 c 0xbf80
1792 116 m 0
 1963 116 2039 262 2039 433 c 0
 2039 619 1953 745 1793 745 c 0
 1619 745 1543 601 1543 429 c 0
 1543 255 1618 116 1792 116 c 0
EndSplineSet
EndChar

StartChar: period
Encoding: 46 46 71
Width: 648
VWidth: 0
GlyphClass: 2
Flags: W
HStem: 0 322<203.277 434.723>
VStem: 154 330<48.6167 273.907>
LayerCount: 2
UndoRedoHistory
Layer: 1
Undoes
EndUndoes
Redoes
EndRedoes
EndUndoRedoHistory
Fore
SplineSet
319 0 m 0
 223 0 154 68 154 163 c 0
 154 255 223 322 319 322 c 0
 415 322 484 255 484 160 c 0
 484 66 415 0 319 0 c 0
EndSplineSet
EndChar

StartChar: plus
Encoding: 43 43 72
Width: 1664
VWidth: 0
GlyphClass: 2
Flags: W
HStem: 605 164<286 748.643 914.912 1379.36>
VStem: 751.352 163.56<109 605 769 1266>
LayerCount: 2
UndoRedoHistory
Layer: 1
Undoes
EndUndoes
Redoes
EndRedoes
EndUndoRedoHistory
Fore
SplineSet
748.643 109 m 1
 748.643 605 l 1
 286 605 l 1
 286 769 l 1
 751.352 769 l 1
 751.352 1266 l 1
 914.912 1266 l 1
 914.912 769 l 1
 1379.36 769 l 1
 1379.36 605 l 1
 913.032 605 l 1
 913.032 109 l 1
 748.643 109 l 1
EndSplineSet
EndChar

StartChar: q
Encoding: 113 113 73
Width: 1241
VWidth: 0
GlyphClass: 2
Flags: W
HStem: -22 196<435.183 680.944> 820 196<498.797 805.991>
VStem: 96 248<275.05 650.825> 808 242<-334 107 318.189 809.025>
LayerCount: 2
UndoRedoHistory
Layer: 1
Undoes
EndUndoes
Redoes
EndRedoes
EndUndoRedoHistory
Fore
SplineSet
551 174 m 0
 699 174 808 316 808 509 c 2
 808 797 l 1
 772 811 702 820 649 820 c 0
 480 820 344 689 344 434 c 0
 344 282 440 174 551 174 c 0
1076 -553 m 2
 908 -639 808 -538 808 -400 c 2
 808 107 l 1
 740 14 618 -22 522 -22 c 0
 278 -22 96 163 96 424 c 0
 96 770 315 1016 648 1016 c 0
 775 1016 954 962 1050 906 c 1
 1050 -334 l 1
 1316 -200 l 1
 1409 -383 l 1
 1076 -553 l 2
EndSplineSet
EndChar

StartChar: question
Encoding: 63 63 74
Width: 947
VWidth: 0
GlyphClass: 2
Flags: W
HStem: 0 298<251.625 471.5> 1242 228<190.052 533.167>
VStem: 209 305<42.375 255.625> 572.653 277.602<994.146 1201.61>
LayerCount: 2
UndoRedoHistory
Layer: 1
Undoes
EndUndoes
Redoes
EndRedoes
EndUndoRedoHistory
Fore
SplineSet
361 0 m 0
 272 0 209 63 209 150 c 0
 209 235 274 298 363 298 c 0
 451 298 514 235 514 148 c 0
 514 63 450 0 361 0 c 0
309 399 m 1
 309 863 572.653 953.171 572.653 1099 c 0
 572.653 1202 493.148 1242 399.274 1242 c 0
 333 1242 242 1223 168 1195 c 1
 137 1406 l 1
 240 1449 353 1470 452.916 1470 c 0
 666.255 1470 850.255 1367 850.255 1127 c 0
 850.255 771 479.738 752 423 399 c 1
 309 399 l 1
EndSplineSet
EndChar

StartChar: quotedbl
Encoding: 34 34 75
Width: 1268
VWidth: 0
GlyphClass: 2
Flags: W
HStem: 928 542<377 530 716 868>
VStem: 351 196<1171.15 1470> 377 153<928 1226.85> 691 194<1159.2 1470> 716 152<928 1238.8>
LayerCount: 2
UndoRedoHistory
Layer: 1
Undoes
EndUndoes
Redoes
EndRedoes
EndUndoRedoHistory
Fore
SplineSet
716 928 m 1x88
 691 1470 l 1
 885 1470 l 1x90
 868 928 l 1
 716 928 l 1x88
377 928 m 1xa0
 351 1470 l 1
 547 1470 l 1xc0
 530 928 l 1
 377 928 l 1xa0
EndSplineSet
EndChar

StartChar: quotesingle
Encoding: 39 39 76
Width: 976
VWidth: 0
GlyphClass: 2
Flags: W
HStem: 1742 542<352 505>
VStem: 310 195<2099 2284> 352 153<1742 1927>
LayerCount: 2
UndoRedoHistory
Layer: 1
Undoes
EndUndoes
Redoes
EndRedoes
EndUndoRedoHistory
Fore
SplineSet
352 1742 m 1xa0
 310 2284 l 1
 505 2284 l 1xc0
 505 1742 l 1
 352 1742 l 1xa0
EndSplineSet
EndChar

StartChar: r
Encoding: 114 114 77
Width: 845
VWidth: 0
GlyphClass: 2
Flags: W
HStem: 0 21G<173 415> 790 225<518.354 776.668>
VStem: 173 242<0 677.012>
LayerCount: 2
UndoRedoHistory
Layer: 1
Undoes
EndUndoes
Redoes
EndRedoes
EndUndoRedoHistory
Fore
SplineSet
173 0 m 1
 173 611 l 2
 173 760 93 857 44 896 c 1
 270 985 l 1
 309 947 345 911 374 823 c 1
 433.958 952 552.685 1015 660.685 1015 c 0
 740.685 1015 758.685 1002 793.685 993 c 1
 775.685 774 l 1
 731.685 785 694.685 790 659.685 790 c 0
 468.264 790 415 607 415 525 c 2
 415 0 l 1
 173 0 l 1
EndSplineSet
EndChar

StartChar: s
Encoding: 115 115 78
Width: 915
VWidth: 0
GlyphClass: 2
Flags: W
HStem: -22 190<249.68 586.935> 832 184<363.628 699.648>
VStem: 116 231<660.264 812.126> 606 221<190.603 354.908>
LayerCount: 2
UndoRedoHistory
Layer: 1
Undoes
EndUndoes
Redoes
EndRedoes
EndUndoRedoHistory
Fore
SplineSet
476 -22 m 0
 324 -22 188 34 127 67 c 1
 179 242 l 1
 214 224 342 168 476 168 c 0
 573 168 606 218 606 275 c 0
 606 352 558 363 401 421 c 1
 184 493 116 574 116 718 c 0
 116 846 206 1016 463 1016 c 0
 644 1016 762 956 789 941 c 1
 733 774 l 1
 646 812 560 832 488 832 c 0
 405 832 347 803 347 737 c 0
 347 679 389 648 517 605 c 1
 741 534 826 469 827 304 c 1
 827 107 710 -22 476 -22 c 0
EndSplineSet
EndChar

StartChar: semicolon
Encoding: 59 59 79
Width: 951
VWidth: 0
GlyphClass: 2
Flags: W
HStem: 837 247<301 501>
VStem: 176 345
LayerCount: 2
UndoRedoHistory
Layer: 1
Undoes
EndUndoes
Redoes
EndRedoes
EndUndoRedoHistory
Fore
SplineSet
246 837 m 1
 301 1084 l 1
 501 1084 l 1
 501 837 l 1
 246 837 l 1
176 -451 m 1
 301 93 l 1
 521 93 l 1
 330 -451 l 1
 176 -451 l 1
EndSplineSet
EndChar

StartChar: seven
Encoding: 55 55 80
Width: 1274
VWidth: 0
GlyphClass: 2
Flags: W
HStem: 0 21G<330 616.115> 1214 199<163 756.636>
LayerCount: 2
UndoRedoHistory
Layer: 1
Undoes
EndUndoes
Redoes
EndRedoes
EndUndoRedoHistory
Fore
SplineSet
330 0 m 1
 756.636 1214 l 1
 163 1214 l 1
 163 1413 l 1
 1047.27 1413 l 1
 1047.27 1232 l 1
 609 0 l 1
 330 0 l 1
EndSplineSet
EndChar

StartChar: six
Encoding: 54 54 81
Width: 1244
VWidth: 0
GlyphClass: 2
Flags: W
HStem: -22 202<484.206 766.197> 736 203.435<491.698 778.959>
VStem: 123 247<293.312 613.871> 882 233<296.732 625.974>
LayerCount: 2
UndoRedoHistory
Layer: 1
Undoes
EndUndoes
Redoes
EndRedoes
EndUndoRedoHistory
Fore
SplineSet
627 180 m 0
 754 180 882 272 882 453 c 0
 882 649 763 736 634 736 c 0
 507 736 370 653 370 455 c 0
 370 273 499 180 627 180 c 0
634 -22 m 0
 388 -22 123 134 123 537 c 0
 123 910 288 1384 849 1551 c 1
 925 1349 l 1
 644 1263 468 1098 400 832 c 1
 478.160516739 905.43306613 578.073855027 940.128230871 678.265105522 939.435079209 c 0
 895.976437553 937.928890086 1115 769.328115463 1115 468 c 0
 1115 140 864 -22 634 -22 c 0
EndSplineSet
EndChar

StartChar: slash
Encoding: 47 47 82
Width: 1117
VWidth: 0
GlyphClass: 2
Flags: W
HStem: 0 21G<166 356.359> 1428 20G<758.858 953.161>
LayerCount: 2
UndoRedoHistory
Layer: 1
Undoes
EndUndoes
Redoes
EndRedoes
EndUndoRedoHistory
Fore
SplineSet
166 0 m 1
 767.161 1448 l 1
 953.161 1448 l 1
 348 0 l 1
 166 0 l 1
EndSplineSet
EndChar

StartChar: t
Encoding: 116 116 84
Width: 874
VWidth: 0
GlyphClass: 2
Flags: W
HStem: -16 203<505.429 816.981> 820 176<32 219 461 772>
VStem: 219 242<228.375 820 996 1309>
LayerCount: 2
UndoRedoHistory
Layer: 1
Undoes
EndUndoes
Redoes
EndRedoes
EndUndoRedoHistory
Fore
SplineSet
574 -16 m 0
 371 -16 219 84 219 304 c 2
 219 820 l 1
 32 820 l 1
 32 996 l 1
 219 996 l 1
 219 1309 l 1
 460 1338 l 1
 460 996 l 1
 772 996 l 1
 772 820 l 1
 461 820 l 1
 461 356 l 2
 461 241 520 187 629 187 c 0
 679 187 741 199 815 221 c 1
 840 31 l 1
 746 0 656 -16 574 -16 c 0
EndSplineSet
EndChar

StartChar: three
Encoding: 51 51 85
Width: 1244
VWidth: 0
GlyphClass: 2
Flags: W
HStem: -22 202<427.257 758.47> 637 206<450 720.095> 1252 218<401.964 726.511>
VStem: 804 237<918.99 1175.6> 848 236<267.695 550.464>
LayerCount: 2
UndoRedoHistory
Layer: 1
Undoes
EndUndoes
Redoes
EndRedoes
EndUndoRedoHistory
Fore
SplineSet
608 -22 m 0xe8
 447 -22 270 44 171 179 c 1
 288 335 l 1
 385 229 489 180 604 180 c 0
 748 180 848 269 848 400 c 0xe8
 848 609 695 637 521 637 c 2
 450 637 l 1
 450 843 l 1
 507 843 l 2
 626 843 804 859 804 1047 c 0
 804 1194 693 1252 578 1252 c 0
 479 1252 367 1210 292 1119 c 1
 155 1272 l 1
 270 1406 448 1470 603 1470 c 0
 817 1470 1041 1345 1041 1077 c 0xf0
 1041 881 908 785 815 758 c 1
 912 739 1084 648 1084 397 c 0
 1084 122 865 -22 608 -22 c 0xe8
EndSplineSet
EndChar

StartChar: two
Encoding: 50 50 86
Width: 1244
VWidth: 0
GlyphClass: 2
Flags: W
HStem: 0 200<517 1048> 1252 217<425.075 707.803>
VStem: 795 256<844.567 1161.87>
LayerCount: 2
UndoRedoHistory
Layer: 1
Undoes
EndUndoes
Redoes
EndRedoes
EndUndoRedoHistory
Fore
SplineSet
578 1469 m 0
 809 1469 1051 1311 1051 1002 c 0
 1051 838 963 694 816 529 c 1
 517 200 l 1
 1048 200 l 1
 1048 0 l 1
 196 0 l 1
 196 192 l 1
 629 666 l 1
 746 796 795 921 795 1022 c 0
 795 1159 704 1252 567 1252 c 0
 475 1252 391 1201 301 1098 c 1
 135 1232 l 1
 249 1390 413 1469 578 1469 c 0
EndSplineSet
EndChar

StartChar: u
Encoding: 117 117 87
Width: 1253
VWidth: 0
GlyphClass: 2
Flags: W
HStem: -16 192<1083.85 1184> 976 20G<191.667 355.44 805 1047>
VStem: 167 242<226.696 929.895> 805 242<272.203 996>
LayerCount: 2
UndoRedoHistory
Layer: 1
Undoes
EndUndoes
Redoes
EndRedoes
EndUndoRedoHistory
Fore
SplineSet
525.653 -22 m 0
 302 -22 167 129 167 354 c 2
 167 524 l 2
 167 834 111 966 111 966 c 1
 353 996 l 1
 353 996 409 864 409 537 c 2
 409 381 l 2
 409 255 458 181 566 174 c 0
 703 165 805 264 805 446 c 2
 805 996 l 1
 1047 996 l 1
 1047 360 l 2
 1047 244 1067 176 1216 176 c 1
 1184 -16 l 1
 1022 -16 901 -1 847 151 c 1
 799 50 684 -22 525.653 -22 c 0
EndSplineSet
EndChar

StartChar: underscore
Encoding: 95 95 88
Width: 927
VWidth: 0
GlyphClass: 2
Flags: W
HStem: -481 128<-10 938.758>
LayerCount: 2
UndoRedoHistory
Layer: 1
Undoes
EndUndoes
Redoes
EndRedoes
EndUndoRedoHistory
Fore
SplineSet
-10 -481 m 1
 -10 -353 l 1
 938.758 -353 l 1
 938.758 -481 l 1
 -10 -481 l 1
EndSplineSet
EndChar

StartChar: v
Encoding: 118 118 90
Width: 1053
VWidth: 0
GlyphClass: 2
Flags: W
HStem: 0 21G<435.12 653.185> 976 20G<26 287.098 772.175 1028.02>
LayerCount: 2
UndoRedoHistory
Layer: 1
Undoes
EndUndoes
Redoes
EndRedoes
EndUndoRedoHistory
Fore
SplineSet
443.504 0 m 1
 26 996 l 1
 279.199 996 l 1
 481.421 484 l 1
 541.504 325 l 1
 596 484 l 1
 779.337 996 l 1
 1028.02 996 l 1
 645.504 0 l 1
 443.504 0 l 1
EndSplineSet
EndChar

StartChar: w
Encoding: 119 119 91
Width: 1622
VWidth: 0
GlyphClass: 2
Flags: W
HStem: 0 21G<404.048 621.887 1017.66 1235.49> 976 20G<16 277.227 1352.79 1607.86>
LayerCount: 2
UndoRedoHistory
Layer: 1
Undoes
EndUndoes
Redoes
EndRedoes
EndUndoRedoHistory
Fore
SplineSet
412 0 m 1
 16 996 l 1
 270 996 l 1
 455 484 l 1
 511 325 l 1
 566 484 l 1
 723.333 965 l 1
 894.861 965 l 1
 1067.86 484 l 1
 1124.86 325 l 1
 1178.86 484 l 1
 1359.86 996 l 1
 1607.86 996 l 1
 1227.86 0 l 1
 1024.86 0 l 1
 815.416 582 l 1
 615 0 l 1
 412 0 l 1
EndSplineSet
EndChar

StartChar: x
Encoding: 120 120 92
Width: 1088
VWidth: 0
GlyphClass: 2
Flags: W
HStem: 0 21G<18 298.34 755.027 1071.79> 976 20G<63 362.026 762.564 1054.79>
LayerCount: 2
UndoRedoHistory
Layer: 1
Undoes
EndUndoes
Redoes
EndRedoes
EndUndoRedoHistory
Fore
SplineSet
18 0 m 1
 412.194 519 l 1
 63 996 l 1
 348.097 996 l 1
 567.472 681 l 1
 775.791 996 l 1
 1054.79 996 l 1
 691.152 504 l 1
 1071.79 0 l 1
 768.791 0 l 1
 531.361 345 l 1
 284 0 l 1
 18 0 l 1
EndSplineSet
EndChar

StartChar: y
Encoding: 121 121 93
Width: 1244
VWidth: 0
GlyphClass: 2
Flags: W
HStem: -542 207<321.164 716.046> -22 192<479.654 740.738> 976 20G<191.667 357.673 834 1076>
VStem: 169 242<236.657 924.737> 834 242<-216.21 87.5364 270.848 996>
LayerCount: 2
UndoRedoHistory
Layer: 1
Undoes
EndUndoes
Redoes
EndRedoes
EndUndoRedoHistory
Fore
SplineSet
558 -542 m 0
 444 -542 315 -513 199 -459 c 1
 245 -259 l 1
 332 -303 453 -335 539 -335 c 0
 662 -335 834 -283 834 -44 c 2
 834 87.5363873164 l 1
 779.581908639 26.2619998995 693.050046855 -22 552 -22 c 0
 323 -22 169 130 169 355 c 2
 169 564 l 2
 169 844 110 966 110 966 c 1
 355 996 l 1
 355 996 416 884 411 577 c 1
 411 381 l 2
 411 247 482 170 596 170 c 0
 754 170 834 270 834 473 c 2
 834 996 l 1
 1076 996 l 1
 1076 -6 l 1
 1075 -401 824 -542 558 -542 c 0
EndSplineSet
EndChar

StartChar: z
Encoding: 122 122 94
Width: 980
VWidth: 0
GlyphClass: 2
Flags: W
HStem: 0 185<403.63 896.064> 825 171<114 585.99>
LayerCount: 2
UndoRedoHistory
Layer: 1
Undoes
EndUndoes
Redoes
EndRedoes
EndUndoRedoHistory
Fore
SplineSet
108 0 m 1
 108 155 l 1
 585.99 825 l 1
 114 825 l 1
 114 996 l 1
 874.064 996 l 1
 874.064 843 l 1
 403.63 185 l 1
 896.064 185 l 1
 896.064 0 l 1
 108 0 l 1
EndSplineSet
EndChar

StartChar: zero
Encoding: 48 48 95
Width: 1304
VWidth: 0
GlyphClass: 2
Flags: W
HStem: 6 218<527.119 773.929> 1255 219<527.119 773.929>
VStem: 118 269<414.619 1060.54> 910.264 276.996<414.619 1060.54>
LayerCount: 2
UndoRedoHistory
Layer: 1
Undoes
EndUndoes
Redoes
EndRedoes
EndUndoRedoHistory
Fore
SplineSet
650.668 6 m 0
 304 6 118 297 118 735 c 0
 118 1179 304 1474 650.668 1474 c 0
 1000.26 1474 1187.26 1179 1187.26 735 c 0
 1187.26 297 1000.26 6 650.668 6 c 0
650.668 224 m 0
 831.876 224 910.264 429 910.264 735 c 0
 910.264 1047 831.876 1255 650.668 1255 c 0
 467.424 1255 387 1047 387 735 c 0
 387 429 467.424 224 650.668 224 c 0
EndSplineSet
EndChar
